<?xml version="1.0" encoding="utf-8"?>
<!-- Generator: Adobe Illustrator 16.0.0, SVG Export Plug-In . SVG Version: 6.00 Build 0)  -->
<!DOCTYPE svg PUBLIC "-//W3C//DTD SVG 1.1//EN" "http://www.w3.org/Graphics/SVG/1.1/DTD/svg11.dtd">
<svg version="1.1" id="Layer_1" xmlns="http://www.w3.org/2000/svg" xmlns:xlink="http://www.w3.org/1999/xlink" x="0px" y="0px"
	 width="320.001px" height="172px" viewBox="0 0 320.001 172" enable-background="new 0 0 320.001 172" xml:space="preserve">
<g>
	<circle fill="#010101" cx="15.046" cy="7.396" r="6.396"/>
	<polygon fill="#010101" points="19.251,29.905 15.621,37.526 15.147,38.52 8.689,38.52 4.206,20.586 1,21.386 6.109,41.826 
		8.694,41.826 5.377,49.129 7.382,50.04 11.112,41.826 16.582,41.826 20.167,50.026 22.185,49.146 18.989,41.826 21.312,41.826 
		21.312,38.52 17.271,38.52 17.748,37.526 19.159,34.557 21.175,30.329 38.306,30.329 38.306,28.409 19.964,28.409 	"/>
	<path fill="#010101" d="M17.564,15.779h-7.275L9.211,37.526h3.676h1.514l4.569-9.589l0.282-0.592l0.402-5.324l4.706,3.081
		l-4.102-0.242l0.02,1.939l4.375,0.586l-0.02-2.104l0.418,0.272v1.887h13.117l1.207-12.761l-1.191,0.243l-10.209,1.78l-0.697,7.494
		L17.564,15.779z M21.384,26.252v-0.451l1.783,0.134l0.019,0.525L21.384,26.252z M31.478,26.513H30.55v-0.521h0.927V26.513z
		 M32.762,26.513h-0.927v-0.521h0.927V26.513z M36.569,26.513h-3.402v-0.521h3.402V26.513z M28.529,17.796l9.55-1.675l-0.74,9.031
		h-8.964l-0.455-0.395L28.529,17.796z"/>
	<polygon fill="#010101" points="24.699,33.047 21.101,33.047 18.968,37.526 19.251,37.526 24.699,37.526 24.699,50.981 
		30.456,50.981 30.456,33.047 29.996,33.047 	"/>
</g>
<g>
	<path fill="#010101" d="M72.473,24.249c3.411,0,6.181-2.767,6.181-6.182c0-3.416-2.77-6.181-6.181-6.181
		c-3.409,0-6.179,2.766-6.179,6.181C66.294,21.482,69.064,24.249,72.473,24.249z"/>
	<polygon fill="#010101" points="64.674,31.367 61.167,38.73 60.704,39.695 54.464,39.695 50.129,22.36 47.031,23.137 
		51.972,42.889 54.467,42.889 51.264,49.948 53.202,50.832 56.809,42.889 62.095,42.889 65.558,50.815 67.509,49.964 64.417,42.889 
		66.661,42.889 66.661,39.695 62.758,39.695 63.219,38.73 64.327,36.407 66.532,31.777 77.267,31.777 77.267,29.922 65.361,29.922 	
		"/>
	<polygon fill="#010101" points="66.662,23.425 63.223,18.513 61.433,18.805 53.889,33.533 54.968,38.73 58.521,38.73 59.986,38.73 
		64.403,29.466 64.674,28.894 64.674,28.765 78.697,28.765 78.697,25.519 66.489,25.519 	"/>
	<polygon fill="#010101" points="69.938,34.405 66.459,34.405 64.4,38.73 64.674,38.73 69.938,38.73 69.938,51.738 75.501,51.738 
		75.501,34.405 75.058,34.405 	"/>
	<polygon fill="#010101" points="79.423,6.031 79.423,4.976 75.117,4.976 75.117,6.031 77.575,6.031 74.92,9.023 74.92,10.079 
		79.61,10.079 79.61,9.023 76.769,9.023 	"/>
	<polygon fill="#010101" points="88.186,18.126 88.186,17.288 84.773,17.288 84.773,18.126 86.721,18.126 84.617,20.498 
		84.617,21.337 88.337,21.337 88.337,20.498 86.08,20.498 	"/>
	<polygon fill="#010101" points="86.708,12.207 84.855,11.312 87.528,10.2 87.863,9.51 85.056,8.155 84.725,8.842 86.325,9.617 
		83.652,10.73 83.32,11.418 86.376,12.895 	"/>
	<polygon fill="#010101" points="95.007,13.577 91.956,14.117 94.236,10.407 94.036,9.272 89.421,10.088 89.621,11.224 
		92.257,10.757 89.979,14.467 90.175,15.6 95.204,14.71 	"/>
	<polygon fill="#010101" points="90.937,5.27 89.873,7 89.969,7.526 92.311,7.112 92.22,6.584 90.798,6.835 91.861,5.108 
		91.766,4.577 89.618,4.959 89.709,5.486 	"/>
	<polygon fill="#010101" points="81.771,13.601 82.564,13.983 81.242,14.532 81.077,14.872 82.585,15.6 82.751,15.261 
		81.838,14.817 83.154,14.269 83.32,13.929 81.935,13.26 	"/>
	<polygon fill="#010101" points="86.542,3.709 85.628,3.266 86.947,2.716 87.11,2.377 85.725,1.708 85.56,2.049 86.354,2.431 
		85.033,2.98 84.867,3.319 86.376,4.049 	"/>
	<polygon fill="#010101" points="82.751,6.882 81.838,6.44 83.154,5.891 83.32,5.552 81.935,4.881 81.771,5.221 82.564,5.604 
		81.242,6.153 81.077,6.493 82.585,7.223 	"/>
</g>
<g>
	<path fill="#010101" d="M115.052,14.504c3.528,0,6.396-2.864,6.396-6.397c0-3.535-2.868-6.399-6.396-6.399
		c-3.53,0-6.396,2.864-6.396,6.399C108.656,11.64,111.522,14.504,115.052,14.504z"/>
	<polygon fill="#010101" points="119.973,29.126 119.26,30.623 119.26,30.623 115.63,38.245 115.63,38.245 115.152,39.243 
		108.693,39.243 104.207,21.3 101,22.102 106.111,42.547 108.696,42.547 105.381,49.855 107.384,50.766 111.117,42.547 
		116.588,42.547 120.176,50.753 122.194,49.872 118.995,42.547 121.32,42.547 121.32,39.243 117.279,39.243 117.756,38.245 
		117.756,38.245 119.167,35.277 121.185,31.049 132.292,31.049 132.292,29.126 	"/>
	<polygon fill="#010101" points="117.571,16.492 110.295,16.492 109.215,38.245 112.891,38.245 114.408,38.245 118.978,28.654 
		119.26,28.06 119.26,27.928 130.467,27.928 130.467,24.568 121.141,24.568 	"/>
	<polygon fill="#010101" points="124.708,33.766 121.109,33.766 118.977,38.245 119.26,38.245 124.708,38.245 124.708,51.708 
		130.467,51.708 130.467,33.766 130.007,33.766 	"/>
</g>
<g>
	<circle fill="#010101" cx="159.046" cy="8.396" r="6.396"/>
	<polygon fill="#010101" points="163.251,30.904 159.621,38.525 159.147,39.52 152.689,39.52 148.206,21.586 145,22.386 
		150.109,42.826 152.694,42.826 149.377,50.129 151.382,51.04 155.112,42.826 160.582,42.826 164.167,51.025 166.186,50.146 
		162.989,42.826 165.313,42.826 165.313,39.52 161.271,39.52 161.748,38.525 163.159,35.557 165.176,31.328 182.307,31.328 
		182.307,29.408 163.964,29.408 	"/>
	<path fill="#010101" d="M161.564,16.779h-7.275l-1.078,21.747h3.676h1.514l4.569-9.589l0.282-0.592l0.402-5.324l4.706,3.081
		l-4.101-0.242l0.02,1.939l4.375,0.585l-0.021-2.103l0.418,0.272v1.888h13.117l1.207-12.761l-1.191,0.243l-10.209,1.78l-0.697,7.494
		L161.564,16.779z M165.384,27.252v-0.451l1.783,0.134l0.019,0.525L165.384,27.252z M175.478,27.513h-0.927v-0.521h0.927V27.513z
		 M176.762,27.513h-0.927v-0.521h0.927V27.513z M180.569,27.513h-3.401v-0.521h3.401V27.513z M172.529,18.796l9.551-1.675
		l-0.74,9.031h-8.965l-0.455-0.395L172.529,18.796z"/>
	<polygon fill="#010101" points="168.699,34.047 165.102,34.047 162.968,38.525 163.251,38.525 168.699,38.525 168.699,51.98 
		174.455,51.98 174.455,34.047 173.996,34.047 	"/>
</g>
<g>
	<path fill="#010101" d="M204.385,14.763c3.529,0,6.396-2.864,6.396-6.397c0-3.535-2.867-6.399-6.396-6.399
		c-3.53,0-6.396,2.864-6.396,6.399C197.989,11.899,200.855,14.763,204.385,14.763z"/>
	<polygon fill="#010101" points="209.306,29.385 208.594,30.882 208.594,30.882 204.963,38.504 204.963,38.504 204.485,39.502 
		198.026,39.502 193.54,21.559 190.333,22.361 195.444,42.807 198.029,42.807 194.714,50.114 196.717,51.025 200.45,42.807 
		205.921,42.807 209.51,51.012 211.527,50.131 208.328,42.807 210.652,42.807 210.652,39.502 206.611,39.502 207.09,38.504 
		207.09,38.504 208.5,35.536 210.518,31.308 221.625,31.308 221.625,29.385 	"/>
	<polygon fill="#010101" points="206.904,16.751 199.628,16.751 198.548,38.504 202.224,38.504 203.741,38.504 208.311,28.913 
		208.594,28.319 208.594,28.187 219.8,28.187 219.8,24.827 210.475,24.827 	"/>
	<polygon fill="#010101" points="214.041,34.025 210.442,34.025 208.31,38.504 208.594,38.504 214.041,38.504 214.041,51.967 
		219.8,51.967 219.8,34.025 219.34,34.025 	"/>
</g>
<g>
	<circle fill="#010101" cx="248.379" cy="8.655" r="6.396"/>
	<polygon fill="#010101" points="252.584,31.164 248.954,38.785 248.48,39.779 242.022,39.779 237.539,21.845 234.333,22.645 
		239.441,43.085 242.027,43.085 238.711,50.388 240.715,51.299 244.445,43.085 249.915,43.085 253.5,51.285 255.519,50.406 
		252.322,43.085 254.646,43.085 254.646,39.779 250.604,39.779 251.081,38.785 252.492,35.816 254.509,31.587 271.64,31.587 
		271.64,29.667 253.297,29.667 	"/>
	<path fill="#010101" d="M250.896,17.038h-7.274l-1.077,21.747h3.676h1.514l4.568-9.589l0.281-0.592l0.402-5.324l4.706,3.081
		l-4.101-0.242l0.02,1.939l4.375,0.585l-0.021-2.103l0.418,0.272v1.888h13.117l1.207-12.761l-1.191,0.243l-10.209,1.78l-0.697,7.494
		L250.896,17.038z M254.717,27.511v-0.451l1.783,0.134l0.019,0.525L254.717,27.511z M264.811,27.772h-0.927V27.25h0.927V27.772z
		 M266.095,27.772h-0.927V27.25h0.927V27.772z M269.902,27.772h-3.401V27.25h3.401V27.772z M261.862,19.055l9.551-1.675l-0.74,9.031
		h-8.965l-0.455-0.395L261.862,19.055z"/>
	<polygon fill="#010101" points="258.032,34.306 254.435,34.306 252.301,38.785 252.584,38.785 258.032,38.785 258.032,52.24 
		263.788,52.24 263.788,34.306 263.329,34.306 	"/>
</g>
<g>
	<circle fill="#010101" cx="293.045" cy="9.027" r="6.396"/>
	<polygon fill="#010101" points="297.25,31.536 293.621,39.157 293.146,40.151 286.689,40.151 282.205,22.217 279,23.017 
		284.107,43.458 286.693,43.458 283.377,50.76 285.381,51.671 289.111,43.458 294.582,43.458 298.166,51.657 300.186,50.778 
		296.988,43.458 299.313,43.458 299.313,40.151 295.27,40.151 295.748,39.157 297.158,36.188 299.176,31.959 316.307,31.959 
		316.307,30.04 297.963,30.04 	"/>
	<path fill="#010101" d="M295.563,17.41h-7.273l-1.078,21.747h3.676h1.514l4.568-9.589l0.281-0.592l0.402-5.324l4.707,3.081
		l-4.102-0.242l0.02,1.939l4.375,0.585l-0.02-2.103l0.418,0.272v1.888h13.117l1.207-12.761l-1.191,0.243l-10.209,1.78l-0.697,7.494
		L295.563,17.41z M299.383,27.883v-0.451l1.783,0.134l0.02,0.525L299.383,27.883z M309.477,28.144h-0.926v-0.521h0.926V28.144z
		 M310.762,28.144h-0.928v-0.521h0.928V28.144z M314.568,28.144h-3.4v-0.521h3.4V28.144z M306.529,19.427l9.551-1.675l-0.74,9.031
		h-8.965l-0.455-0.395L306.529,19.427z"/>
	<polygon fill="#010101" points="302.699,34.678 299.102,34.678 296.967,39.157 297.25,39.157 302.699,39.157 302.699,52.612 
		308.455,52.612 308.455,34.678 307.996,34.678 	"/>
</g>
<g>
	<circle fill="#010101" cx="15.151" cy="66.236" r="6.396"/>
	<polygon fill="#010101" points="19.356,88.745 15.726,96.366 15.252,97.36 8.794,97.36 4.311,79.426 1.105,80.226 6.214,100.666 
		8.799,100.666 5.482,107.969 7.487,108.88 11.217,100.666 16.687,100.666 20.272,108.865 22.29,107.986 19.094,100.666 
		21.417,100.666 21.417,97.36 17.376,97.36 17.853,96.366 19.264,93.397 21.28,89.168 38.411,89.168 38.411,87.249 20.069,87.249 	
		"/>
	<path fill="#010101" d="M17.669,74.619h-7.275L9.316,96.366h3.676h1.514l4.569-9.589l0.282-0.592l0.402-5.324l4.706,3.081
		L20.363,83.7l0.02,1.939l4.375,0.586l-0.02-2.104l0.418,0.272v1.887h13.117L39.48,73.52l-1.191,0.243l-10.209,1.78l-0.697,7.494
		L17.669,74.619z M21.489,85.092v-0.451l1.783,0.134l0.019,0.525L21.489,85.092z M31.583,85.353h-0.927v-0.521h0.927V85.353z
		 M32.867,85.353H31.94v-0.521h0.927V85.353z M36.674,85.353h-3.402v-0.521h3.402V85.353z M28.634,76.636l9.55-1.675l-0.74,9.031
		H28.48l-0.455-0.395L28.634,76.636z"/>
	<polygon fill="#010101" points="24.804,91.887 21.206,91.887 19.073,96.366 19.356,96.366 24.804,96.366 24.804,109.82 
		30.561,109.82 30.561,91.887 30.101,91.887 	"/>
</g>
<g>
	<path fill="#010101" d="M72.578,83.089c3.411,0,6.181-2.767,6.181-6.182c0-3.416-2.77-6.181-6.181-6.181
		c-3.409,0-6.179,2.766-6.179,6.181C66.399,80.322,69.169,83.089,72.578,83.089z"/>
	<polygon fill="#010101" points="64.779,90.207 61.271,97.57 60.809,98.535 54.569,98.535 50.234,81.2 47.136,81.977 
		52.077,101.729 54.572,101.729 51.369,108.787 53.307,109.672 56.914,101.729 62.2,101.729 65.663,109.655 67.614,108.804 
		64.522,101.729 66.766,101.729 66.766,98.535 62.863,98.535 63.324,97.57 64.432,95.247 66.637,90.617 77.372,90.617 
		77.372,88.762 65.466,88.762 	"/>
	<polygon fill="#010101" points="66.767,82.265 63.328,77.353 61.538,77.645 53.994,92.373 55.073,97.57 58.626,97.57 60.091,97.57 
		64.508,88.306 64.779,87.733 64.779,87.604 78.802,87.604 78.802,84.359 66.594,84.359 	"/>
	<polygon fill="#010101" points="70.043,93.245 66.564,93.245 64.505,97.57 64.779,97.57 70.043,97.57 70.043,110.578 
		75.606,110.578 75.606,93.245 75.163,93.245 	"/>
	<polygon fill="#010101" points="79.528,64.871 79.528,63.815 75.222,63.815 75.222,64.871 77.68,64.871 75.025,67.863 
		75.025,68.919 79.715,68.919 79.715,67.863 76.874,67.863 	"/>
	<polygon fill="#010101" points="88.291,76.966 88.291,76.127 84.878,76.127 84.878,76.966 86.826,76.966 84.722,79.337 
		84.722,80.177 88.442,80.177 88.442,79.337 86.185,79.337 	"/>
	<polygon fill="#010101" points="86.813,71.046 84.96,70.151 87.633,69.04 87.968,68.35 85.161,66.995 84.83,67.682 86.43,68.457 
		83.757,69.57 83.425,70.258 86.481,71.735 	"/>
	<polygon fill="#010101" points="95.112,72.417 92.061,72.957 94.341,69.247 94.141,68.112 89.526,68.928 89.726,70.064 
		92.362,69.597 90.084,73.307 90.28,74.44 95.309,73.55 	"/>
	<polygon fill="#010101" points="91.042,64.109 89.978,65.84 90.074,66.366 92.416,65.952 92.325,65.424 90.903,65.675 
		91.966,63.948 91.871,63.417 89.723,63.799 89.814,64.326 	"/>
	<polygon fill="#010101" points="81.875,72.44 82.669,72.823 81.347,73.372 81.182,73.712 82.69,74.44 82.856,74.101 81.943,73.657 
		83.259,73.109 83.425,72.769 82.04,72.1 	"/>
	<polygon fill="#010101" points="86.647,62.549 85.733,62.106 87.052,61.556 87.215,61.217 85.83,60.547 85.665,60.889 
		86.458,61.271 85.138,61.82 84.972,62.159 86.481,62.889 	"/>
	<polygon fill="#010101" points="82.856,65.722 81.943,65.28 83.259,64.73 83.425,64.392 82.04,63.721 81.875,64.061 82.669,64.444 
		81.347,64.993 81.182,65.333 82.69,66.063 	"/>
</g>
<g>
	<path fill="#010101" d="M115.157,73.344c3.528,0,6.396-2.864,6.396-6.397c0-3.535-2.868-6.399-6.396-6.399
		c-3.53,0-6.396,2.864-6.396,6.399C108.761,70.479,111.627,73.344,115.157,73.344z"/>
	<polygon fill="#010101" points="120.078,87.966 119.365,89.463 119.365,89.463 115.735,97.084 115.735,97.084 115.257,98.083 
		108.798,98.083 104.312,80.14 101.105,80.941 106.216,101.387 108.801,101.387 105.486,108.695 107.489,109.605 111.222,101.387 
		116.693,101.387 120.281,109.593 122.299,108.711 119.1,101.387 121.425,101.387 121.425,98.083 117.384,98.083 117.861,97.084 
		117.861,97.084 119.271,94.117 121.29,89.889 132.397,89.889 132.397,87.966 	"/>
	<polygon fill="#010101" points="117.676,75.332 110.4,75.332 109.32,97.084 112.996,97.084 114.513,97.084 119.083,87.494 
		119.365,86.899 119.365,86.768 130.572,86.768 130.572,83.408 121.246,83.408 	"/>
	<polygon fill="#010101" points="124.813,92.606 121.214,92.606 119.082,97.084 119.365,97.084 124.813,97.084 124.813,110.547 
		130.572,110.547 130.572,92.606 130.112,92.606 	"/>
</g>
<g>
	<circle fill="#010101" cx="159.151" cy="67.236" r="6.396"/>
	<polygon fill="#010101" points="163.356,89.744 159.726,97.365 159.252,98.359 152.794,98.359 148.311,80.426 145.105,81.226 
		150.214,101.666 152.799,101.666 149.482,108.969 151.487,109.88 155.217,101.666 160.687,101.666 164.272,109.865 
		166.291,108.986 163.094,101.666 165.417,101.666 165.417,98.359 161.376,98.359 161.853,97.365 163.264,94.396 165.281,90.168 
		182.412,90.168 182.412,88.248 164.069,88.248 	"/>
	<path fill="#010101" d="M161.669,75.619h-7.275l-1.078,21.747h3.676h1.514l4.569-9.589l0.282-0.592l0.402-5.324l4.706,3.081
		l-4.101-0.242l0.02,1.939l4.375,0.585l-0.021-2.103l0.418,0.272v1.888h13.117l1.207-12.761l-1.191,0.243l-10.209,1.78l-0.697,7.494
		L161.669,75.619z M165.489,86.092v-0.451l1.783,0.134l0.019,0.525L165.489,86.092z M175.583,86.353h-0.927v-0.521h0.927V86.353z
		 M176.867,86.353h-0.927v-0.521h0.927V86.353z M180.674,86.353h-3.401v-0.521h3.401V86.353z M172.634,77.636l9.551-1.675
		l-0.74,9.031h-8.965l-0.455-0.395L172.634,77.636z"/>
	<polygon fill="#010101" points="168.804,92.887 165.207,92.887 163.073,97.365 163.356,97.365 168.804,97.365 168.804,110.82 
		174.56,110.82 174.56,92.887 174.101,92.887 	"/>
</g>
<g>
	<circle fill="#010101" cx="248.484" cy="67.495" r="6.396"/>
	<polygon fill="#010101" points="252.689,90.003 249.059,97.625 248.586,98.619 242.127,98.619 237.645,80.685 234.438,81.485 
		239.547,101.925 242.133,101.925 238.816,109.229 240.82,110.139 244.551,101.925 250.02,101.925 253.605,110.125 255.623,109.246 
		252.428,101.925 254.75,101.925 254.75,98.619 250.709,98.619 251.186,97.625 252.598,94.656 254.613,90.427 271.744,90.427 
		271.744,88.507 253.402,88.507 	"/>
	<path fill="#010101" d="M251.002,75.878h-7.275l-1.076,21.747h3.676h1.514l4.568-9.589l0.281-0.592l0.402-5.324l4.705,3.081
		l-4.1-0.242l0.02,1.939l4.375,0.585l-0.021-2.103l0.418,0.272v1.888h13.117l1.207-12.761l-1.191,0.243l-10.209,1.78l-0.697,7.494
		L251.002,75.878z M254.822,86.351V85.9l1.783,0.134l0.018,0.525L254.822,86.351z M264.916,86.612h-0.928V86.09h0.928V86.612z
		 M266.199,86.612h-0.926V86.09h0.926V86.612z M270.008,86.612h-3.402V86.09h3.402V86.612z M261.967,77.895l9.551-1.675l-0.74,9.031
		h-8.965l-0.455-0.395L261.967,77.895z"/>
	<polygon fill="#010101" points="258.137,93.146 254.539,93.146 252.406,97.625 252.689,97.625 258.137,97.625 258.137,111.08 
		263.893,111.08 263.893,93.146 263.434,93.146 	"/>
</g>
<g>
	<circle fill="#010101" cx="293.15" cy="67.867" r="6.396"/>
	<polygon fill="#010101" points="297.355,90.375 293.727,97.997 293.252,98.991 286.795,98.991 282.311,81.057 279.105,81.857 
		284.213,102.297 286.799,102.297 283.482,109.6 285.486,110.512 289.217,102.297 294.688,102.297 298.271,110.496 300.291,109.617 
		297.094,102.297 299.418,102.297 299.418,98.991 295.375,98.991 295.854,97.997 297.264,95.028 299.281,90.799 316.412,90.799 
		316.412,88.879 298.068,88.879 	"/>
	<path fill="#010101" d="M295.668,76.25h-7.273l-1.078,21.747h3.676h1.514l4.568-9.589l0.281-0.592l0.402-5.324l4.707,3.081
		l-4.102-0.242l0.02,1.939l4.375,0.585l-0.02-2.103l0.418,0.272v1.888h13.117l1.207-12.761l-1.191,0.243l-10.209,1.78l-0.697,7.494
		L295.668,76.25z M299.488,86.723v-0.451l1.783,0.134l0.02,0.525L299.488,86.723z M309.582,86.984h-0.926v-0.521h0.926V86.984z
		 M310.867,86.984h-0.928v-0.521h0.928V86.984z M314.674,86.984h-3.4v-0.521h3.4V86.984z M306.635,78.267l9.551-1.675l-0.74,9.031
		h-8.965l-0.455-0.395L306.635,78.267z"/>
	<polygon fill="#010101" points="302.805,93.518 299.207,93.518 297.072,97.997 297.355,97.997 302.805,97.997 302.805,111.451 
		308.561,111.451 308.561,93.518 308.102,93.518 	"/>
</g>
<g>
	<circle fill="#010101" cx="15.046" cy="123.767" r="6.396"/>
	<polygon fill="#010101" points="19.251,146.275 15.621,153.896 15.147,154.891 8.689,154.891 4.206,136.957 1,137.756 
		6.109,158.196 8.694,158.196 5.377,165.5 7.382,166.41 11.112,158.196 16.582,158.196 20.167,166.396 22.185,165.518 
		18.989,158.196 21.312,158.196 21.312,154.891 17.271,154.891 17.748,153.896 19.159,150.928 21.175,146.699 38.306,146.699 
		38.306,144.779 19.964,144.779 	"/>
	<path fill="#010101" d="M17.564,132.149h-7.275l-1.078,21.747h3.676h1.514l4.569-9.59l0.282-0.592l0.402-5.324l4.706,3.082
		l-4.102-0.242l0.02,1.939l4.375,0.586l-0.02-2.104l0.418,0.271v1.888h13.117l1.207-12.761l-1.191,0.242l-10.209,1.781l-0.697,7.493
		L17.564,132.149z M21.384,142.623v-0.451l1.783,0.134l0.019,0.524L21.384,142.623z M31.478,142.883H30.55v-0.521h0.927V142.883z
		 M32.762,142.883h-0.927v-0.521h0.927V142.883z M36.569,142.883h-3.402v-0.521h3.402V142.883z M28.529,134.166l9.55-1.675
		l-0.74,9.03h-8.964l-0.455-0.395L28.529,134.166z"/>
	<polygon fill="#010101" points="24.699,149.418 21.101,149.418 18.968,153.896 19.251,153.896 24.699,153.896 24.699,167.352 
		30.456,167.352 30.456,149.418 29.996,149.418 	"/>
</g>
<g>
	<path fill="#010101" d="M59.052,130.875c3.528,0,6.396-2.865,6.396-6.397c0-3.535-2.868-6.399-6.396-6.399
		c-3.53,0-6.396,2.864-6.396,6.399C52.656,128.01,55.522,130.875,59.052,130.875z"/>
	<polygon fill="#010101" points="63.973,145.496 63.26,146.994 63.26,146.994 59.63,154.615 59.63,154.615 59.152,155.613 
		52.693,155.613 48.207,137.67 45,138.473 50.111,158.918 52.696,158.918 49.381,166.227 51.384,167.137 55.117,158.918 
		60.588,158.918 64.176,167.123 66.194,166.242 62.995,158.918 65.32,158.918 65.32,155.613 61.279,155.613 61.756,154.615 
		61.756,154.615 63.167,151.647 65.185,147.42 76.292,147.42 76.292,145.496 	"/>
	<polygon fill="#010101" points="61.571,132.862 54.295,132.862 53.215,154.615 56.891,154.615 58.408,154.615 62.978,145.024 
		63.26,144.43 63.26,144.299 74.467,144.299 74.467,140.938 65.141,140.938 	"/>
	<polygon fill="#010101" points="68.708,150.137 65.109,150.137 62.977,154.615 63.26,154.615 68.708,154.615 68.708,168.078 
		74.467,168.078 74.467,150.137 74.007,150.137 	"/>
</g>
<g>
	<circle fill="#010101" cx="103.046" cy="124.767" r="6.396"/>
	<polygon fill="#010101" points="107.251,147.275 103.621,154.896 103.147,155.891 96.689,155.891 92.206,137.957 89,138.756 
		94.109,159.197 96.694,159.197 93.377,166.5 95.382,167.41 99.112,159.197 104.582,159.197 108.167,167.396 110.186,166.518 
		106.989,159.197 109.313,159.197 109.313,155.891 105.271,155.891 105.748,154.896 107.159,151.928 109.176,147.699 
		126.307,147.699 126.307,145.779 107.964,145.779 	"/>
	<path fill="#010101" d="M105.564,133.149h-7.275l-1.078,21.747h3.676h1.514l4.569-9.59l0.282-0.592l0.402-5.324l4.706,3.082
		l-4.101-0.242l0.02,1.939l4.375,0.586l-0.021-2.104l0.418,0.271v1.889h13.118l1.207-12.762l-1.191,0.242l-10.209,1.781
		l-0.697,7.493L105.564,133.149z M109.384,143.623v-0.451l1.783,0.134l0.019,0.524L109.384,143.623z M119.477,143.883h-0.926v-0.521
		h0.926V143.883z M120.762,143.883h-0.928v-0.521h0.928V143.883z M124.569,143.883h-3.4v-0.521h3.4V143.883z M116.529,135.166
		l9.551-1.675l-0.74,9.03h-8.965l-0.455-0.395L116.529,135.166z"/>
	<polygon fill="#010101" points="112.699,150.418 109.102,150.418 106.968,154.896 107.251,154.896 112.699,154.896 
		112.699,168.352 118.456,168.352 118.456,150.418 117.997,150.418 	"/>
</g>
<g>
	<path fill="#010101" d="M148.385,131.134c3.529,0,6.396-2.864,6.396-6.397c0-3.535-2.867-6.398-6.396-6.398
		c-3.529,0-6.396,2.863-6.396,6.398C141.989,128.27,144.856,131.134,148.385,131.134z"/>
	<polygon fill="#010101" points="153.305,145.756 152.594,147.253 152.594,147.253 148.963,154.875 148.963,154.875 
		148.484,155.873 142.026,155.873 137.54,137.93 134.333,138.731 139.444,159.178 142.03,159.178 138.715,166.484 140.717,167.396 
		144.45,159.178 149.92,159.178 153.51,167.383 155.527,166.502 152.328,159.178 154.652,159.178 154.652,155.873 150.611,155.873 
		151.09,154.875 151.09,154.875 152.5,151.906 154.518,147.679 165.625,147.679 165.625,145.756 	"/>
	<polygon fill="#010101" points="150.904,133.121 143.629,133.121 142.549,154.875 146.223,154.875 147.74,154.875 152.311,145.283 
		152.594,144.689 152.594,144.558 163.799,144.558 163.799,141.197 154.475,141.197 	"/>
	<polygon fill="#010101" points="158.041,150.396 154.441,150.396 152.309,154.875 152.594,154.875 158.041,154.875 
		158.041,168.338 163.799,168.338 163.799,150.396 163.34,150.396 	"/>
</g>
<g>
	<circle fill="#010101" cx="192.379" cy="125.026" r="6.396"/>
	<polygon fill="#010101" points="196.584,147.534 192.953,155.155 192.48,156.149 186.021,156.149 181.539,138.216 178.332,139.016 
		183.441,159.456 186.027,159.456 182.711,166.76 184.715,167.67 188.445,159.456 193.914,159.456 197.5,167.656 199.518,166.777 
		196.322,159.456 198.645,159.456 198.645,156.149 194.604,156.149 195.08,155.155 196.492,152.187 198.508,147.958 
		215.639,147.958 215.639,146.038 197.297,146.038 	"/>
	<path fill="#010101" d="M194.896,133.408h-7.275l-1.076,21.747h3.676h1.514l4.568-9.589l0.281-0.592l0.402-5.324l4.705,3.081
		l-4.1-0.241l0.02,1.939l4.375,0.585l-0.021-2.103l0.418,0.271v1.888H215.5l1.207-12.761l-1.191,0.242l-10.209,1.78l-0.697,7.493
		L194.896,133.408z M198.717,143.882v-0.45l1.783,0.133l0.018,0.525L198.717,143.882z M208.811,144.143h-0.928v-0.521h0.928V144.143
		z M210.094,144.143h-0.926v-0.521h0.926V144.143z M213.902,144.143H210.5v-0.521h3.402V144.143z M205.861,135.426l9.551-1.676
		l-0.74,9.031h-8.965l-0.455-0.395L205.861,135.426z"/>
	<polygon fill="#010101" points="202.031,150.677 198.434,150.677 196.301,155.155 196.584,155.155 202.031,155.155 
		202.031,168.611 207.787,168.611 207.787,150.677 207.328,150.677 	"/>
</g>
<g>
	<circle fill="#010101" cx="237.045" cy="125.398" r="6.396"/>
	<polygon fill="#010101" points="241.25,147.906 237.621,155.527 237.146,156.521 230.689,156.521 226.205,138.588 223,139.388 
		228.107,159.828 230.693,159.828 227.377,167.131 229.381,168.043 233.111,159.828 238.582,159.828 242.166,168.027 
		244.186,167.148 240.988,159.828 243.313,159.828 243.313,156.521 239.27,156.521 239.748,155.527 241.158,152.559 243.176,148.33 
		260.307,148.33 260.307,146.41 241.963,146.41 	"/>
	<path fill="#010101" d="M239.563,133.781h-7.273l-1.078,21.746h3.676h1.514l4.568-9.589l0.281-0.592l0.402-5.324l4.707,3.081
		l-4.102-0.242l0.02,1.939l4.375,0.586l-0.02-2.104l0.418,0.272v1.888h13.117l1.207-12.762l-1.191,0.243l-10.209,1.78l-0.697,7.494
		L239.563,133.781z M243.383,144.254v-0.451l1.783,0.135l0.02,0.524L243.383,144.254z M253.477,144.515h-0.926v-0.521h0.926V144.515
		z M254.762,144.515h-0.928v-0.521h0.928V144.515z M258.568,144.515h-3.4v-0.521h3.4V144.515z M250.529,135.798l9.551-1.675
		l-0.74,9.03h-8.965l-0.455-0.395L250.529,135.798z"/>
	<polygon fill="#010101" points="246.699,151.049 243.102,151.049 240.967,155.527 241.25,155.527 246.699,155.527 246.699,168.982 
		252.455,168.982 252.455,151.049 251.996,151.049 	"/>
</g>
<g>
	<path fill="#010101" d="M211.41,82.988c3.41,0,6.18-2.767,6.18-6.182c0-3.416-2.77-6.181-6.18-6.181
		c-3.409,0-6.18,2.766-6.18,6.181C205.23,80.221,208.001,82.988,211.41,82.988z"/>
	<polygon fill="#010101" points="203.611,90.106 200.104,97.469 199.641,98.434 193.401,98.434 189.066,81.099 185.968,81.875 
		190.909,101.628 193.404,101.628 190.201,108.686 192.139,109.57 195.746,101.628 201.031,101.628 204.494,109.555 
		206.445,108.703 203.354,101.628 205.598,101.628 205.598,98.434 201.695,98.434 202.156,97.469 203.264,95.146 205.469,90.516 
		216.203,90.516 216.203,88.661 204.298,88.661 	"/>
	<polygon fill="#010101" points="205.6,82.164 202.16,77.252 200.369,77.544 192.826,92.272 193.905,97.469 197.458,97.469 
		198.923,97.469 203.34,88.205 203.611,87.632 203.611,87.503 217.635,87.503 217.635,84.258 205.426,84.258 	"/>
	<polygon fill="#010101" points="208.875,93.144 205.396,93.144 203.337,97.469 203.611,97.469 208.875,97.469 208.875,110.477 
		214.438,110.477 214.438,93.144 213.994,93.144 	"/>
	<polygon fill="#010101" points="218.359,64.77 218.359,63.714 214.055,63.714 214.055,64.77 216.512,64.77 213.857,67.762 
		213.857,68.818 218.547,68.818 218.547,67.762 215.705,67.762 	"/>
	<polygon fill="#010101" points="227.123,76.865 227.123,76.026 223.711,76.026 223.711,76.865 225.658,76.865 223.554,79.236 
		223.554,80.076 227.273,80.076 227.273,79.236 225.017,79.236 	"/>
	<polygon fill="#010101" points="225.646,70.945 223.793,70.05 226.465,68.939 226.801,68.249 223.992,66.894 223.662,67.581 
		225.262,68.356 222.59,69.469 222.258,70.157 225.313,71.634 	"/>
	<polygon fill="#010101" points="233.943,72.316 230.893,72.856 233.173,69.146 232.973,68.011 228.357,68.827 228.558,69.963 
		231.194,69.496 228.916,73.206 229.112,74.339 234.141,73.449 	"/>
	<polygon fill="#010101" points="229.873,64.008 228.81,65.739 228.906,66.265 231.248,65.851 231.157,65.323 229.734,65.574 
		230.798,63.847 230.703,63.316 228.555,63.698 228.646,64.225 	"/>
	<polygon fill="#010101" points="220.707,72.339 221.501,72.722 220.179,73.271 220.014,73.611 221.521,74.339 221.688,74 
		220.775,73.556 222.092,73.008 222.258,72.667 220.872,71.999 	"/>
	<polygon fill="#010101" points="225.479,62.448 224.564,62.005 225.885,61.455 226.047,61.116 224.662,60.446 224.497,60.788 
		225.291,61.169 223.97,61.719 223.804,62.058 225.313,62.788 	"/>
	<polygon fill="#010101" points="221.688,65.621 220.775,65.179 222.092,64.629 222.258,64.291 220.872,63.62 220.707,63.96 
		221.501,64.343 220.179,64.892 220.014,65.231 221.521,65.961 	"/>
</g>
<g>
	<path fill="#010101" d="M293.506,141c3.41,0,6.18-2.768,6.18-6.182c0-3.416-2.77-6.182-6.18-6.182c-3.408,0-6.18,2.766-6.18,6.182
		C287.326,138.232,290.098,141,293.506,141z"/>
	<polygon fill="#010101" points="285.707,148.117 282.199,155.48 281.736,156.445 275.497,156.445 271.162,139.11 268.064,139.887 
		273.006,159.64 275.5,159.64 272.297,166.697 274.234,167.582 277.842,159.64 283.127,159.64 286.59,167.566 288.541,166.715 
		285.451,159.64 287.693,159.64 287.693,156.445 283.791,156.445 284.252,155.48 285.359,153.157 287.564,148.527 298.299,148.527 
		298.299,146.673 286.395,146.673 	"/>
	<polygon fill="#010101" points="287.695,140.176 284.256,135.264 282.465,135.556 274.922,150.283 276.001,155.48 279.555,155.48 
		281.02,155.48 285.436,146.217 285.707,145.645 285.707,145.516 299.73,145.516 299.73,142.27 287.521,142.27 	"/>
	<polygon fill="#010101" points="290.971,151.156 287.492,151.156 285.434,155.48 285.707,155.48 290.971,155.48 290.971,168.488 
		296.533,168.488 296.533,151.156 296.09,151.156 	"/>
	<polygon fill="#010101" points="300.455,122.781 300.455,121.727 296.15,121.727 296.15,122.781 298.607,122.781 295.953,125.773 
		295.953,126.83 300.643,126.83 300.643,125.773 297.801,125.773 	"/>
	<polygon fill="#010101" points="309.219,134.877 309.219,134.038 305.807,134.038 305.807,134.877 307.754,134.877 305.65,137.248 
		305.65,138.088 309.369,138.088 309.369,137.248 307.113,137.248 	"/>
	<polygon fill="#010101" points="307.742,128.957 305.889,128.063 308.561,126.951 308.896,126.261 306.088,124.906 
		305.758,125.593 307.357,126.367 304.686,127.48 304.354,128.169 307.41,129.646 	"/>
	<polygon fill="#010101" points="316.039,130.328 312.988,130.867 315.27,127.157 315.068,126.023 310.453,126.839 310.654,127.975 
		313.291,127.508 311.012,131.218 311.209,132.351 316.236,131.461 	"/>
	<polygon fill="#010101" points="311.969,122.02 310.906,123.75 311.002,124.277 313.344,123.863 313.254,123.334 311.83,123.586 
		312.895,121.858 312.799,121.328 310.65,121.71 310.742,122.236 	"/>
	<polygon fill="#010101" points="302.803,130.352 303.598,130.734 302.275,131.282 302.109,131.623 303.617,132.351 
		303.783,132.012 302.871,131.568 304.188,131.02 304.354,130.68 302.969,130.011 	"/>
	<polygon fill="#010101" points="307.576,120.459 306.66,120.017 307.98,119.467 308.143,119.128 306.758,118.458 306.594,118.8 
		307.387,119.182 306.066,119.73 305.9,120.07 307.41,120.799 	"/>
	<polygon fill="#010101" points="303.783,123.633 302.871,123.191 304.188,122.641 304.354,122.303 302.969,121.632 
		302.803,121.972 303.598,122.355 302.275,122.903 302.109,123.243 303.617,123.973 	"/>
</g>
</svg>
