<?xml version="1.0" encoding="utf-8"?>
<!-- Generator: Adobe Illustrator 16.0.0, SVG Export Plug-In . SVG Version: 6.00 Build 0)  -->
<!DOCTYPE svg PUBLIC "-//W3C//DTD SVG 1.1//EN" "http://www.w3.org/Graphics/SVG/1.1/DTD/svg11.dtd">
<svg version="1.1" id="Livello_1" xmlns="http://www.w3.org/2000/svg" xmlns:xlink="http://www.w3.org/1999/xlink" x="0px" y="0px"
	 width="100px" height="100.084px" viewBox="20.167 21.17 100 100.084" enable-background="new 20.167 21.17 100 100.084"
	 xml:space="preserve">
<path d="M117.109,70.59h3.012c-0.033-2.64-0.279-5.229-0.709-7.748l-2.971,0.547l-0.248-1.355l2.967-0.556
	c-0.559-2.802-1.352-5.513-2.357-8.128l-2.809,1.121l-0.516-1.277l2.813-1.132c-1.127-2.688-2.479-5.259-4.029-7.688l-2.529,1.669
	l-0.76-1.161l2.521-1.658c-1.645-2.415-3.49-4.674-5.523-6.762l-2.129,2.136l-0.98-0.976l2.131-2.136
	c-1.852-1.806-3.852-3.474-5.975-4.975l-1.713,2.493l-1.141-0.786l1.711-2.493c-2.336-1.565-4.818-2.932-7.416-4.088l-1.195,2.796
	l-1.268-0.547l1.191-2.79c-2.656-1.098-5.428-1.971-8.291-2.595l-0.609,2.976l-1.355-0.278l0.615-2.976
	c-2.82-0.532-5.727-0.835-8.691-0.874v3.035h-1.377v-3.035c-2.645,0.039-5.23,0.273-7.752,0.703l0.557,2.995L60.926,25.3
	l-0.556-2.995c-2.81,0.556-5.532,1.352-8.138,2.355l1.133,2.834l-1.287,0.518l-1.133-2.839c-2.691,1.122-5.267,2.478-7.697,4.034
	l1.679,2.552l-1.151,0.761l-1.678-2.546c-2.42,1.639-4.684,3.493-6.762,5.522l2.156,2.155l-0.985,0.976l-2.156-2.155
	c-1.806,1.863-3.474,3.863-4.975,5.985l2.518,1.731l-0.78,1.142l-2.518-1.731c-1.571,2.341-2.937,4.825-4.099,7.42l2.819,1.21
	l-0.537,1.27l-2.82-1.206c-1.104,2.658-1.971,5.429-2.595,8.298l3.005,0.614l-0.283,1.356l-2.996-0.619
	c-0.536,2.824-0.839,5.721-0.878,8.691h3.063v1.381h-3.063c0.039,2.645,0.282,5.229,0.712,7.758l3.015-0.557l0.253,1.355
	l-3.015,0.561c0.556,2.807,1.356,5.529,2.361,8.143l2.85-1.141l0.518,1.277l-2.85,1.141c1.123,2.693,2.478,5.268,4.039,7.697
	l2.557-1.688l0.761,1.162L28.856,99.4c1.648,2.42,3.493,4.678,5.532,6.762l2.156-2.156l0.976,0.977l-2.156,2.156
	c1.863,1.813,3.864,3.479,5.99,4.98l1.728-2.518l1.142,0.785l-1.727,2.514c2.341,1.566,4.82,2.93,7.415,4.082l1.209-2.811
	l1.27,0.547l-1.199,2.811c2.653,1.094,5.424,1.961,8.293,2.586l0.615-2.986l1.354,0.279l-0.614,2.979
	c2.818,0.537,5.717,0.83,8.679,0.869v-3.033h1.386v3.033c2.641-0.039,5.229-0.283,7.754-0.713l-0.559-2.984l1.361-0.254l0.555,2.984
	c2.801-0.557,5.523-1.355,8.133-2.361l-1.129-2.82l1.281-0.516l1.131,2.818c2.693-1.121,5.26-2.477,7.689-4.033l-1.67-2.531
	l1.156-0.762l1.664,2.527c2.414-1.646,4.674-3.494,6.762-5.521l-2.137-2.139l0.977-0.975l2.135,2.125
	c1.807-1.852,3.475-3.854,4.977-5.98l-2.498-1.705l0.791-1.143l2.488,1.707c1.561-2.336,2.926-4.82,4.076-7.416l-2.779-1.189
	l0.547-1.268l2.779,1.189c1.094-2.66,1.961-5.426,2.586-8.295l-2.955-0.604l0.271-1.355l2.961,0.609
	c0.531-2.814,0.83-5.723,0.869-8.684h-3.012V70.59L117.109,70.59z M70.168,109.201c-20.934,0-37.901-16.965-37.901-37.895
	c0-20.938,16.966-37.904,37.901-37.904c20.932,0,37.902,16.966,37.902,37.904C108.07,92.234,91.1,109.201,70.168,109.201z"/>
</svg>
