<?xml version="1.0" encoding="utf-8"?>
<!-- Generator: Adobe Illustrator 16.0.0, SVG Export Plug-In . SVG Version: 6.00 Build 0)  -->
<!DOCTYPE svg PUBLIC "-//W3C//DTD SVG 1.1//EN" "http://www.w3.org/Graphics/SVG/1.1/DTD/svg11.dtd">
<svg version="1.1" xmlns="http://www.w3.org/2000/svg" xmlns:xlink="http://www.w3.org/1999/xlink" x="0px" y="0px" width="400px"
	 height="208px" viewBox="0 0 400 208" enable-background="new 0 0 400 208" xml:space="preserve">
<g id="Layer_1">
	<g>
		<path fill="#010101" d="M164.063,16.09c0.174,0.801,0.441,1.32,0.752,1.644c0.742,5.161,5.374,9.557,9.094,9.376
			c4.732-0.234,8.085-5.334,8.84-9.376c0.312-0.321,0.61-1.008,0.792-1.815c0.2-0.927,0.418-2.325-0.14-3.064
			c-0.034-0.039-0.246-0.234-0.284-0.267c0.533-1.92,1.701-5.346-1.21-8.426c-1.576-1.668-3.767-2.506-5.747-3.168
			c-5.846-1.953-9.974,0.785-11.878,5.34c-0.137,0.323-1.025,2.37,0.05,6.254c-0.104,0.07-0.199,0.159-0.278,0.267
			C163.496,13.591,163.859,15.163,164.063,16.09z"/>
		<path fill="#010101" d="M194.295,44.47c-0.163-3.55-0.365-9.179-3.467-13.784c0,0-0.883-1.206-2.981-2.007
			c0,0-4.56-1.388-6.658-2.888l-0.957,0.656l0.106,6.229l-5.752,15.356c-0.127,0.338-0.447,0.56-0.806,0.56
			c-0.358,0-0.679-0.221-0.805-0.56l-5.751-15.356c0,0,0.107-6.208,0.105-6.229c0.013,0.051-0.96-0.656-0.96-0.656
			c-2.094,1.5-6.653,2.888-6.653,2.888c-2.098,0.801-2.983,2.007-2.983,2.007c-3.101,4.605-3.306,10.234-3.469,13.784
			c-0.112,2.456,0.403,3.372,1.049,3.633c8.025,3.221,30.901,3.221,38.929,0C193.896,47.842,194.406,46.925,194.295,44.47z"/>
		<path fill="#010101" d="M173.987,29.092l-0.26,0.005c-0.835,0-1.679-0.163-2.508-0.45l2.281,3.489l-2.046,1.976l2.106,12.788
			c0.018,0.112,0.112,0.191,0.225,0.191c0.111,0,0.205-0.079,0.224-0.191l2.107-12.788l-2.048-1.976l2.247-3.437
			C175.579,28.917,174.804,29.06,173.987,29.092z"/>
	</g>
	<g>
		<path fill="#010101" d="M10.697,16.275c0.172,0.793,0.437,1.306,0.745,1.626c0.733,5.105,5.316,9.455,8.997,9.276
			c4.682-0.232,7.999-5.277,8.746-9.276c0.309-0.318,0.604-0.998,0.783-1.796c0.198-0.917,0.414-2.3-0.138-3.032
			c-0.034-0.038-0.243-0.232-0.28-0.264c0.527-1.899,1.683-5.289-1.197-8.336c-1.559-1.65-3.727-2.479-5.685-3.134
			C16.883-0.593,12.8,2.116,10.915,6.622c-0.135,0.32-1.014,2.344,0.05,6.188c-0.103,0.069-0.196,0.157-0.275,0.264
			C10.137,13.803,10.497,15.358,10.697,16.275z"/>
		<path fill="#010101" d="M40.606,44.351c-0.161-3.512-0.361-9.081-3.43-13.637c0,0-0.874-1.193-2.949-1.986
			c0,0-4.511-1.373-6.586-2.857l-0.946,0.648l0.104,6.162l-5.69,15.192c-0.126,0.335-0.443,0.554-0.797,0.554
			c-0.354,0-0.672-0.219-0.796-0.554l-5.689-15.192c0,0,0.105-6.142,0.104-6.162c0.013,0.05-0.95-0.648-0.95-0.648
			c-2.072,1.484-6.582,2.857-6.582,2.857c-2.076,0.793-2.951,1.986-2.951,1.986c-3.068,4.556-3.271,10.125-3.432,13.637
			c-0.111,2.43,0.398,3.336,1.038,3.594c7.939,3.187,30.571,3.187,38.513,0C40.211,47.688,40.716,46.781,40.606,44.351z"/>
		<path fill="#010101" d="M20.516,29.138l-0.258,0.005c-0.826,0-1.661-0.161-2.481-0.445l2.256,3.452l-2.024,1.954l2.083,12.651
			c0.018,0.111,0.111,0.189,0.222,0.189c0.11,0,0.203-0.078,0.222-0.189l2.084-12.651l-2.026-1.954l2.223-3.4
			C22.091,28.964,21.324,29.106,20.516,29.138z"/>
	</g>
</g>
<g id="Capa_1">
	<path fill="#040305" d="M44.203,15.096c0-3.645,2.954-6.596,6.605-6.596c3.639,0,6.589,2.951,6.589,6.596
		c0,3.646-2.951,6.594-6.589,6.594C47.157,21.69,44.203,18.743,44.203,15.096z M73.416,21.27c-1.063-0.637-2.432-0.307-3.074,0.749
		l-4.405,7.22l-6.208-3.467c-2.791-1.72-4.15-2.535-8.294-2.535h-0.632h-0.629c-8.04,0.939-6.645,7.378-6.645,7.378l0.856,17.454
		h14.204l-0.494-17.454l7.544,3.58c0.346,0.196,0.717,0.284,1.089,0.284c0.756,0,1.49-0.381,1.914-1.072l5.523-9.061
		C74.805,23.29,74.472,21.914,73.416,21.27z M55.542,20.585c-0.489,0.42-1.023,0.777-1.607,1.061v1.043
		c0.584,0.065,1.119,0.163,1.607,0.297V20.585z M92.476,0.397H53.935v8.149c0.584,0.28,1.119,0.641,1.607,1.061V2.002h35.329v24.169
		H73.859l-0.978,1.606h19.595V0.397z M66.024,27.777l0.985-1.606h-5.145l2.873,1.606H66.024z M79.64,11.487l-0.776-0.443
		l-5.396,9.404l0.783,0.449L79.64,11.487z"/>
	<g>
		<path fill="#010101" d="M144.652,36.52l-11.44-15.783l-0.424-0.742c-0.353-0.494-0.936-0.988-1.748-1.482
			c-0.812-0.495-1.748-0.742-2.807-0.742h-15.467c-1.059,0-2.013,0.265-2.859,0.795c-0.848,0.529-1.396,0.971-1.643,1.324
			c-0.247,0.353-0.406,0.636-0.477,0.848L96.348,36.52c-0.565,0.777-0.848,1.624-0.848,2.543c0,1.2,0.441,2.242,1.324,3.125
			c0.883,0.882,1.925,1.324,3.125,1.324c0.564,0,1.13-0.106,1.695-0.318l6.885-2.013v6.886h23.941v-6.886l6.885,2.013
			c0.565,0.212,1.131,0.318,1.695,0.318c1.201,0,2.242-0.442,3.125-1.324c0.883-0.883,1.324-1.925,1.324-3.125
			C145.5,38.144,145.218,37.297,144.652,36.52z M132.471,32.389l-0.848-0.318c-1.201-0.282-2.277-0.282-3.231,0
			c-0.953,0.283-1.642,0.813-2.065,1.589c-0.424,0.777-0.653,1.59-0.688,2.437c-0.035,0.848,0.265,1.678,0.9,2.49
			c0.636,0.812,1.554,1.395,2.754,1.747h0.106L120.5,43.3l-8.898-2.967h0.212c1.13-0.353,2.013-0.936,2.648-1.747
			c0.636-0.813,0.936-1.643,0.9-2.49c-0.035-0.847-0.265-1.659-0.688-2.437c-0.424-0.776-1.112-1.306-2.065-1.589
			c-0.954-0.282-2.03-0.282-3.231,0l-0.848,0.318v-9.217l11.971,3.92l11.971-3.92V32.389z"/>
		<path fill="#010101" d="M120.659,15.969c2.153,0,3.99-0.759,5.508-2.277c1.519-1.519,2.278-3.354,2.278-5.509
			c0-2.153-0.76-3.99-2.278-5.508c-1.518-1.519-3.354-2.278-5.508-2.278c-2.154,0-3.99,0.76-5.509,2.278
			c-1.519,1.518-2.277,3.354-2.277,5.508c0,2.154,0.759,3.99,2.277,5.509S118.505,15.969,120.659,15.969z"/>
	</g>
	<g>
		<path fill="#010101" d="M305.902,36.322l-11.44-15.783l-0.424-0.742c-0.353-0.494-0.936-0.988-1.748-1.482
			c-0.812-0.495-1.748-0.742-2.807-0.742h-15.467c-1.059,0-2.013,0.265-2.859,0.795c-0.848,0.529-1.396,0.971-1.643,1.324
			c-0.247,0.353-0.406,0.636-0.477,0.848l-11.44,15.783c-0.565,0.777-0.848,1.625-0.848,2.543c0,1.201,0.441,2.242,1.324,3.125
			s1.925,1.324,3.125,1.324c0.564,0,1.13-0.105,1.695-0.318l6.885-2.012v6.885h23.941v-6.885l6.885,2.012
			c0.565,0.213,1.131,0.318,1.695,0.318c1.201,0,2.242-0.441,3.125-1.324s1.324-1.924,1.324-3.125
			C306.75,37.947,306.468,37.099,305.902,36.322z M293.721,32.191l-0.848-0.318c-1.201-0.281-2.277-0.281-3.231,0
			c-0.953,0.283-1.642,0.813-2.065,1.59s-0.653,1.59-0.688,2.436c-0.035,0.848,0.265,1.678,0.9,2.49s1.554,1.395,2.754,1.748h0.106
			l-8.898,2.967l-8.898-2.967h0.212c1.13-0.354,2.013-0.936,2.648-1.748s0.936-1.643,0.9-2.49c-0.035-0.846-0.265-1.658-0.688-2.436
			s-1.112-1.307-2.065-1.59c-0.954-0.281-2.03-0.281-3.231,0l-0.848,0.318v-9.216l11.971,3.92l11.971-3.92V32.191z"/>
		<path fill="#010101" d="M281.909,15.771c2.153,0,3.99-0.759,5.508-2.277c1.519-1.519,2.278-3.354,2.278-5.509
			c0-2.153-0.76-3.99-2.278-5.508c-1.518-1.519-3.354-2.278-5.508-2.278c-2.154,0-3.99,0.76-5.509,2.278
			c-1.519,1.518-2.277,3.354-2.277,5.508c0,2.154,0.759,3.99,2.277,5.509S279.755,15.771,281.909,15.771z"/>
	</g>
	<path fill="#040305" d="M202.703,14.699c0-3.645,2.954-6.596,6.605-6.596c3.639,0,6.59,2.951,6.59,6.596
		c0,3.646-2.951,6.594-6.59,6.594C205.657,21.293,202.703,18.346,202.703,14.699z M231.916,20.873
		c-1.063-0.637-2.433-0.307-3.074,0.749l-4.405,7.22l-6.208-3.467c-2.791-1.72-4.15-2.535-8.294-2.535h-0.632h-0.63
		c-8.04,0.939-6.645,7.378-6.645,7.378l0.876,17.851H217.1l-0.504-17.851l7.544,3.58c0.346,0.195,0.718,0.283,1.089,0.283
		c0.757,0,1.49-0.381,1.914-1.072l5.523-9.06C233.305,22.893,232.973,21.517,231.916,20.873z M214.043,20.188
		c-0.489,0.42-1.023,0.777-1.607,1.061v1.043c0.584,0.065,1.118,0.163,1.607,0.297V20.188z M250.976,0h-38.54v8.149
		c0.584,0.28,1.118,0.641,1.607,1.061V1.605h35.328v24.169h-17.012l-0.979,1.606h19.595V0z M224.524,27.38l0.985-1.606h-5.146
		l2.872,1.606H224.524z M238.14,11.09l-0.776-0.443l-5.396,9.404l0.782,0.449L238.14,11.09z"/>
</g>
</svg>
